<svg width="44" height="33" viewBox="0 0 44 33" fill="none" xmlns="http://www.w3.org/2000/svg">
<path d="M16.9844 29.4688C17.6406 28.4375 18.0938 27.25 18.2656 26H36.3906C38.6875 26 40.0312 24.6562 40.0312 22.3594V7.125C40.0312 4.82812 38.6875 3.48438 36.3906 3.48438H13.5C11.2031 3.48438 9.85938 4.82812 9.85938 7.125V13.9062C9.28125 13.7969 8.70312 13.7344 8.10938 13.7344C7.51562 13.7344 6.9375 13.7969 6.375 13.9062V6.84375C6.375 2.53125 8.90625 0 13.2188 0H36.9375C41.0781 0 43.5156 2.53125 43.5156 6.84375V22.625C43.5156 26.9531 41.0781 29.4688 36.9375 29.4688H16.9844ZM14.0938 9.14062C13.2656 9.14062 12.5938 8.4375 12.5938 7.64062C12.5938 6.82812 13.2656 6.14062 14.0938 6.14062C14.9219 6.14062 15.5938 6.82812 15.5938 7.64062C15.5938 8.4375 14.9219 9.14062 14.0938 9.14062ZM18.7969 9.14062C17.9688 9.14062 17.2969 8.45312 17.2969 7.64062C17.2969 6.82812 17.9688 6.14062 18.7969 6.14062C19.625 6.14062 20.2969 6.82812 20.2969 7.64062C20.2969 8.45312 19.625 9.14062 18.7969 9.14062ZM23.4844 9.14062C22.6562 9.14062 21.9844 8.45312 21.9844 7.64062C21.9844 6.82812 22.6562 6.14062 23.4844 6.14062C24.3125 6.14062 24.9844 6.82812 24.9844 7.64062C24.9844 8.45312 24.3125 9.14062 23.4844 9.14062ZM8.10938 32.2656C3.67188 32.2656 0 28.5938 0 24.1406C0 19.6875 3.67188 16.0156 8.10938 16.0156C12.5625 16.0156 16.2344 19.6875 16.2344 24.1406C16.2344 28.5781 12.5312 32.2656 8.10938 32.2656ZM8.10938 29.3438C8.8125 29.3438 9.26562 28.875 9.26562 28.2031V25.2969H12.1562C12.8438 25.2969 13.2969 24.8438 13.2969 24.1406C13.2969 23.4531 12.8438 23 12.1562 23H9.26562V20.1094C9.26562 19.4219 8.8125 18.9688 8.10938 18.9688C7.42188 18.9688 6.96875 19.4375 6.96875 20.1094V23H4.07812C3.39062 23 2.9375 23.4531 2.9375 24.1406C2.9375 24.8438 3.40625 25.2969 4.07812 25.2969H6.96875V28.2031C6.96875 28.875 7.42188 29.3438 8.10938 29.3438Z" fill="#1D1D1F"/>
</svg>
