<svg width="26" height="16" viewBox="0 0 26 16" fill="none" xmlns="http://www.w3.org/2000/svg">
<path d="M0 1.99219C0 1.60807 0.0878906 1.26628 0.263672 0.966797C0.439453 0.667318 0.677083 0.432943 0.976562 0.263672C1.27604 0.0878906 1.61133 0 1.98242 0H23.877C24.248 0 24.5833 0.0878906 24.8828 0.263672C25.1823 0.432943 25.4199 0.667318 25.5957 0.966797C25.7715 1.26628 25.8594 1.60807 25.8594 1.99219C25.8594 2.36328 25.7715 2.70182 25.5957 3.00781C25.4199 3.30729 25.1823 3.54492 24.8828 3.7207C24.5833 3.88997 24.248 3.97461 23.877 3.97461H1.98242C1.61133 3.97461 1.27604 3.88997 0.976562 3.7207C0.677083 3.54492 0.439453 3.30729 0.263672 3.00781C0.0878906 2.70182 0 2.36328 0 1.99219ZM1.55273 1.99219C1.55273 2.1224 1.59831 2.23307 1.68945 2.32422C1.78711 2.40885 1.90755 2.45117 2.05078 2.45117H23.8086C23.9518 2.45117 24.069 2.40885 24.1602 2.32422C24.2578 2.23307 24.3066 2.1224 24.3066 1.99219C24.3066 1.85547 24.2578 1.74479 24.1602 1.66016C24.069 1.56901 23.9518 1.52344 23.8086 1.52344H2.05078C1.90755 1.52344 1.78711 1.56901 1.68945 1.66016C1.59831 1.74479 1.55273 1.85547 1.55273 1.99219ZM7.29492 13.1738C5.45247 13.1738 4.05924 12.7279 3.11523 11.8359C2.17773 10.944 1.70898 9.62565 1.70898 7.88086V3.24219H3.28125V7.88086C3.28125 9.11133 3.61979 10.0391 4.29688 10.6641C4.97396 11.2891 5.97331 11.6016 7.29492 11.6016H18.5742C19.8893 11.6016 20.8854 11.2891 21.5625 10.6641C22.2396 10.0391 22.5781 9.11133 22.5781 7.88086V3.24219H24.1504V7.88086C24.1504 9.62565 23.6784 10.944 22.7344 11.8359C21.7969 12.7279 20.4102 13.1738 18.5742 13.1738H7.29492ZM4.57031 15.3516C4.36849 15.2799 4.22201 15.1432 4.13086 14.9414C4.03971 14.7461 4.02995 14.5475 4.10156 14.3457L4.93164 12.0508L6.40625 12.5879L5.57617 14.8828C5.50456 15.0846 5.36784 15.2311 5.16602 15.3223C4.9707 15.4199 4.77214 15.4297 4.57031 15.3516ZM21.2988 15.3516C21.0905 15.4297 20.8854 15.4199 20.6836 15.3223C20.4883 15.2311 20.3548 15.0846 20.2832 14.8828L19.4531 12.5879L20.9277 12.0508L21.7578 14.3457C21.8294 14.5475 21.8197 14.7461 21.7285 14.9414C21.6374 15.1432 21.4941 15.2799 21.2988 15.3516Z" fill="black"/>
</svg>
