<svg width="18" height="18" viewBox="0 0 18 18" fill="none" xmlns="http://www.w3.org/2000/svg">
<path d="M7.88086 17.3438V10.5273C7.88086 9.70052 8.125 9.05599 8.61328 8.59375C9.10807 8.125 9.78516 7.89062 10.6445 7.89062H17.2363V9.46289H10.6738C10.2832 9.46289 9.98047 9.5638 9.76562 9.76562C9.55729 9.96094 9.45312 10.2376 9.45312 10.5957V17.3438H7.88086ZM3.06641 17.9785C2.04427 17.9785 1.27604 17.7246 0.761719 17.2168C0.253906 16.7155 0 15.9635 0 14.9609V3.02734C0 2.01823 0.253906 1.26302 0.761719 0.761719C1.27604 0.253906 2.04427 0 3.06641 0H14.9121C15.9342 0 16.6992 0.253906 17.207 0.761719C17.7214 1.26953 17.9785 2.02474 17.9785 3.02734V14.9609C17.9785 15.9635 17.7214 16.7155 17.207 17.2168C16.6992 17.7246 15.9342 17.9785 14.9121 17.9785H3.06641ZM3.08594 16.4062H14.8926C15.3743 16.4062 15.7454 16.2793 16.0059 16.0254C16.2728 15.765 16.4062 15.3809 16.4062 14.873V3.11523C16.4062 2.60742 16.2728 2.22331 16.0059 1.96289C15.7454 1.70247 15.3743 1.57227 14.8926 1.57227H3.08594C2.59766 1.57227 2.22331 1.70247 1.96289 1.96289C1.70247 2.22331 1.57227 2.60742 1.57227 3.11523V14.873C1.57227 15.3809 1.70247 15.765 1.96289 16.0254C2.22331 16.2793 2.59766 16.4062 3.08594 16.4062Z" fill="black"/>
</svg>
