<svg width="33" height="38" viewBox="0 0 33 38" fill="none" xmlns="http://www.w3.org/2000/svg">
<path d="M3.14062 37.5156C1.15625 37.5156 0 36.25 0 34.1562V3.35938C0 1.28125 1.15625 0 3.14062 0H20.7344C22.7031 0 23.8594 1.28125 23.8594 3.35938V7.875H29.3906C31.3594 7.875 32.5312 9.15625 32.5312 11.25V34.1562C32.5312 36.25 31.3594 37.5156 29.3906 37.5156H3.14062ZM3.96875 34.2812H7.10938V30.0156C7.10938 28.7656 7.71875 28.1094 8.90625 28.1094H14.9688C16.1562 28.1094 16.7656 28.7656 16.7656 30.0156V34.2812H19.9062C20.375 34.2812 20.6094 34.0312 20.6094 33.5625V3.96875C20.6094 3.5 20.375 3.25 19.9062 3.25H3.96875C3.5 3.25 3.25 3.5 3.25 3.96875V33.5625C3.25 34.0312 3.5 34.2812 3.96875 34.2812ZM7.15625 11.8125C6.78125 11.8125 6.54688 11.5781 6.54688 11.2031V8.34375C6.54688 7.96875 6.78125 7.71875 7.15625 7.71875H10.0781C10.4531 7.71875 10.6875 7.96875 10.6875 8.34375V11.2031C10.6875 11.5781 10.4531 11.8125 10.0781 11.8125H7.15625ZM13.7656 11.8125C13.4062 11.8125 13.1719 11.5781 13.1719 11.2031V8.34375C13.1719 7.96875 13.4062 7.71875 13.7656 7.71875H16.7031C17.0625 7.71875 17.3125 7.96875 17.3125 8.34375V11.2031C17.3125 11.5781 17.0625 11.8125 16.7031 11.8125H13.7656ZM23.8594 34.1562C23.8594 34.2031 23.8594 34.25 23.8594 34.2812H28.5625C29.0312 34.2812 29.2812 34.0312 29.2812 33.5625V11.8438C29.2812 11.3594 29.0312 11.125 28.5625 11.125H23.8594V15.0312H26.2812C26.5781 15.0312 26.7656 15.2188 26.7656 15.5156V17.7812C26.7656 18.0625 26.5781 18.25 26.2812 18.25H23.8594V20.375H26.2812C26.5781 20.375 26.7656 20.5625 26.7656 20.875V23.125C26.7656 23.4062 26.5781 23.5938 26.2812 23.5938H23.8594V25.7188H26.2812C26.5781 25.7188 26.7656 25.9062 26.7656 26.2031V28.4531C26.7656 28.75 26.5781 28.9375 26.2812 28.9375H23.8594V34.1562ZM7.15625 17.7188C6.78125 17.7188 6.54688 17.4688 6.54688 17.0938V14.2344C6.54688 13.875 6.78125 13.625 7.15625 13.625H10.0781C10.4531 13.625 10.6875 13.875 10.6875 14.2344V17.0938C10.6875 17.4688 10.4531 17.7188 10.0781 17.7188H7.15625ZM13.7656 17.7188C13.4062 17.7188 13.1719 17.4688 13.1719 17.0938V14.2344C13.1719 13.875 13.4062 13.625 13.7656 13.625H16.7031C17.0625 13.625 17.3125 13.875 17.3125 14.2344V17.0938C17.3125 17.4688 17.0625 17.7188 16.7031 17.7188H13.7656ZM7.15625 23.625C6.78125 23.625 6.54688 23.375 6.54688 23V20.1406C6.54688 19.7656 6.78125 19.5156 7.15625 19.5156H10.0781C10.4531 19.5156 10.6875 19.7656 10.6875 20.1406V23C10.6875 23.375 10.4531 23.625 10.0781 23.625H7.15625ZM13.7656 23.625C13.4062 23.625 13.1719 23.375 13.1719 23V20.1406C13.1719 19.7656 13.4062 19.5156 13.7656 19.5156H16.7031C17.0625 19.5156 17.3125 19.7656 17.3125 20.1406V23C17.3125 23.375 17.0625 23.625 16.7031 23.625H13.7656ZM9.59375 30.9375V34.2812H14.2812V30.9375C14.2812 30.6406 14.125 30.4844 13.8281 30.4844H10.0469C9.75 30.4844 9.59375 30.6406 9.59375 30.9375Z" fill="#1D1D1F"/>
</svg>
