<svg width="39" height="31" viewBox="0 0 39 31" fill="none" xmlns="http://www.w3.org/2000/svg">
<path d="M5.29688 30.4531C1.84375 30.4531 0 28.6406 0 25.2188V8.79688C0 5.375 1.84375 3.54688 5.29688 3.54688H9.375C10.5781 3.54688 11 3.34375 11.7812 2.54688L13.0156 1.26562C13.8438 0.40625 14.6875 0 16.2656 0H22.4688C24.0469 0 24.8906 0.40625 25.7188 1.26562L26.9531 2.54688C27.7344 3.34375 28.1562 3.54688 29.3594 3.54688H33.5156C36.9688 3.54688 38.7969 5.375 38.7969 8.79688V25.2188C38.7969 28.6406 36.9688 30.4531 33.5156 30.4531H5.29688ZM5.59375 26.9844H33.2188C34.5781 26.9844 35.3281 26.2812 35.3281 24.8438V9.15625C35.3281 7.71875 34.5781 7.01562 33.2188 7.01562H28.2812C26.875 7.01562 26.1719 6.78125 25.3906 5.92188L24.1875 4.64062C23.3438 3.73438 22.8594 3.48438 21.5 3.48438H17.2344C15.875 3.48438 15.375 3.73438 14.5156 4.65625L13.3438 5.92188C12.5625 6.78125 11.8594 7.01562 10.4531 7.01562H5.59375C4.23438 7.01562 3.48438 7.71875 3.48438 9.15625V24.8438C3.48438 26.2812 4.23438 26.9844 5.59375 26.9844ZM19.4062 25.0312C14.7656 25.0312 11.0312 21.3125 11.0312 16.6406C11.0312 11.9844 14.7656 8.25 19.4062 8.25C24.0469 8.25 27.7656 11.9844 27.7656 16.6406C27.7656 21.3125 24.0469 25.0312 19.4062 25.0312ZM30.8125 12.4688C29.75 12.4688 28.875 11.5938 28.875 10.5312C28.875 9.45312 29.75 8.59375 30.8125 8.59375C31.8906 8.59375 32.75 9.45312 32.75 10.5312C32.75 11.5938 31.8906 12.4688 30.8125 12.4688ZM19.4062 21.9219C22.3281 21.9219 24.6719 19.5781 24.6719 16.6406C24.6719 13.7188 22.3281 11.3594 19.4062 11.3594C16.4844 11.3594 14.1406 13.7188 14.1406 16.6406C14.1406 19.5781 16.5 21.9219 19.4062 21.9219Z" fill="#1D1D1F"/>
</svg>
