<svg width="45" height="30" viewBox="0 0 45 30" fill="none" xmlns="http://www.w3.org/2000/svg">
<path d="M30.2188 14.7969C26.3906 14.7969 23.3125 11.4531 23.3125 7.32812C23.3125 3.29688 26.4219 0 30.2188 0C34.0312 0 37.1094 3.25 37.1094 7.3125C37.1094 11.4375 34.0312 14.7969 30.2188 14.7969ZM12.0312 14.9844C8.71875 14.9844 6.01562 12.0625 6.01562 8.42188C6.01562 4.90625 8.73438 1.98438 12.0312 1.98438C15.3594 1.98438 18.0469 4.85938 18.0469 8.40625C18.0469 12.0469 15.3594 14.9844 12.0312 14.9844ZM30.2188 11.8281C32.3125 11.8281 34.0469 9.84375 34.0469 7.3125C34.0469 4.84375 32.3125 2.96875 30.2188 2.96875C28.1406 2.96875 26.3906 4.875 26.3906 7.32812C26.3906 9.875 28.1406 11.8281 30.2188 11.8281ZM12.0312 12.0625C13.7188 12.0625 15.1406 10.4688 15.1406 8.40625C15.1406 6.45312 13.7344 4.89062 12.0312 4.89062C10.3438 4.89062 8.92188 6.48438 8.92188 8.42188C8.92188 10.4688 10.3438 12.0625 12.0312 12.0625ZM3.48438 29.375C1.15625 29.375 0 28.3594 0 26.4219C0 21.2344 5.375 16.5156 12.0156 16.5156C14.3594 16.5156 16.8594 17.1562 18.8125 18.3125C17.8594 18.9219 17.1562 19.6562 16.6094 20.5C15.3594 19.8281 13.625 19.4219 12.0156 19.4219C7.15625 19.4219 3.09375 22.7031 3.09375 26.0938C3.09375 26.3438 3.20312 26.4688 3.48438 26.4688H14.1562C14.0469 27.5781 14.6094 28.8281 15.5312 29.375H3.48438ZM20.5156 29.375C17.75 29.375 16.4062 28.4688 16.4062 26.5469C16.4062 22.1406 21.8906 16.5312 30.2031 16.5312C38.5312 16.5312 44.0156 22.1406 44.0156 26.5469C44.0156 28.4688 42.6562 29.375 39.8906 29.375H20.5156ZM20.1719 26.4062H40.2344C40.5781 26.4062 40.7031 26.2969 40.7031 26.0312C40.7031 23.7656 36.9062 19.5 30.2031 19.5C23.5 19.5 19.7188 23.7656 19.7188 26.0312C19.7188 26.2969 19.8438 26.4062 20.1719 26.4062Z" fill="#1D1D1F"/>
</svg>
