<svg width="79" height="26" viewBox="0 0 79 26" fill="none" xmlns="http://www.w3.org/2000/svg">
<path fill-rule="evenodd" clip-rule="evenodd" d="M15.5012 9.19831C16.9551 9.19831 18.1338 8.01965 18.1338 6.56571C18.1338 5.11176 16.9551 3.9331 15.5012 3.9331C14.0473 3.9331 12.8687 5.11176 12.8687 6.56571C12.8687 8.01965 14.0473 9.19831 15.5012 9.19831Z" fill="white"/>
<path fill-rule="evenodd" clip-rule="evenodd" d="M15.5012 15.5147C16.9551 15.5147 18.1338 14.3362 18.1338 12.8825C18.1338 11.4287 16.9551 10.2502 15.5012 10.2502C14.0473 10.2502 12.8687 11.4287 12.8687 12.8825C12.8687 14.3362 14.0473 15.5147 15.5012 15.5147Z" fill="white"/>
<path fill-rule="evenodd" clip-rule="evenodd" d="M15.5012 22.0669C16.9551 22.0669 18.1338 20.8882 18.1338 19.4343C18.1338 17.9803 16.9551 16.8017 15.5012 16.8017C14.0473 16.8017 12.8687 17.9803 12.8687 19.4343C12.8687 20.8882 14.0473 22.0669 15.5012 22.0669Z" fill="white"/>
<path fill-rule="evenodd" clip-rule="evenodd" d="M8.94958 15.5147C10.4033 15.5147 11.5818 14.3362 11.5818 12.8824C11.5818 11.4287 10.4033 10.2502 8.94958 10.2502C7.49586 10.2502 6.31738 11.4287 6.31738 12.8824C6.31738 14.3362 7.49586 15.5147 8.94958 15.5147Z" fill="white"/>
<path fill-rule="evenodd" clip-rule="evenodd" d="M8.94958 22.0668C10.4033 22.0668 11.5818 20.8882 11.5818 19.4342C11.5818 17.9803 10.4033 16.8016 8.94958 16.8016C7.49586 16.8016 6.31738 17.9803 6.31738 19.4342C6.31738 20.8882 7.49586 22.0668 8.94958 22.0668Z" fill="white"/>
<path fill-rule="evenodd" clip-rule="evenodd" d="M2.63255 22.0668C4.08647 22.0668 5.26511 20.8882 5.26511 19.4342C5.26511 17.9803 4.08647 16.8016 2.63255 16.8016C1.17863 16.8016 0 17.9803 0 19.4342C0 20.8882 1.17863 22.0668 2.63255 22.0668Z" fill="white"/>
<path d="M24.4069 8.27307V5.7973H36.0714V8.27307H31.7232V20H28.7551V8.27307H24.4069ZM38.9002 20H35.6824L40.5854 5.7973H44.4551L49.3511 20H46.1333L42.5757 9.04284H42.4648L38.9002 20ZM38.6991 14.4174H46.2998V16.7614H38.6991V14.4174ZM56.2906 20H51.2559V5.7973H56.3322C57.7608 5.7973 58.9906 6.08164 60.0216 6.6503C61.0526 7.21434 61.8455 8.02572 62.4003 9.08445C62.9597 10.1432 63.2394 11.41 63.2394 12.8848C63.2394 14.3642 62.9597 15.6356 62.4003 16.699C61.8455 17.7623 61.048 18.5783 60.0077 19.147C58.9721 19.7157 57.7331 20 56.2906 20ZM54.2587 17.4271H56.1658C57.0534 17.4271 57.8001 17.27 58.4058 16.9556C59.016 16.6366 59.4737 16.1442 59.7789 15.4784C60.0886 14.8081 60.2435 13.9435 60.2435 12.8848C60.2435 11.8353 60.0886 10.9777 59.7789 10.3119C59.4737 9.64618 59.0183 9.15611 58.4127 8.84173C57.807 8.52735 57.0604 8.37016 56.1727 8.37016H54.2587V17.4271ZM67.3061 20H64.0883L68.9913 5.7973H72.8609L77.757 20H74.5392L70.9816 9.04284H70.8706L67.3061 20ZM67.105 14.4174H74.7056V16.7614H67.105V14.4174Z" fill="white"/>
</svg>
