<svg width="34" height="36" viewBox="0 0 34 36" fill="none" xmlns="http://www.w3.org/2000/svg">
<path d="M0 24.0469C0 18.4062 3.23438 13.9375 7.60938 13.9375H10.2188C13.4531 9.9375 15.8438 6.67188 17.7656 2.96875C18.8438 0.890625 20.0156 0 21.7031 0C24.0156 0 25.7188 1.76562 25.7188 4.15625C25.7188 7.26562 23.3438 10.9688 23.2031 12.4844C23.1719 12.75 23.375 12.875 23.6406 12.875H29.2344C31.7656 12.875 33.6875 14.8281 33.6875 17.3594C33.6875 18.3281 33.4375 19.2344 33.0312 19.9062C33.3125 20.4844 33.4844 21.2188 33.4844 21.9531C33.4844 23.0938 33.0938 24.1719 32.3906 24.9375C32.6094 25.4375 32.7188 26.0156 32.7188 26.625C32.7188 27.9531 32.125 29.1719 31.0781 30.0312C31.1719 30.3281 31.2188 30.6406 31.2188 30.9688C31.2188 33.0469 29.7188 34.75 27.4062 35.3125C26.2812 35.5938 24.5625 35.7188 22.5312 35.7188H20.3906C17.7188 35.7188 15.2812 35.1406 13.2031 34.0938H8.1875C3.51562 34.0938 0 29.5781 0 24.0469ZM9.9375 23.8906C9.9375 28.9844 14.1719 32.5469 20.5156 32.5625H22.2656C24.25 32.5625 25.6875 32.4688 26.5781 32.25C27.5312 32 27.9688 31.5312 27.9688 30.9531C27.9688 30.6406 27.9375 30.5156 27.6562 29.8125C27.4062 29.25 27.5781 28.5625 28.1562 28.2188C29.0312 27.7656 29.4531 27.25 29.4531 26.5781C29.4531 26.1562 29.3125 25.8594 29.0156 25.2969C28.6719 24.5938 28.875 23.8438 29.4844 23.4062C30.0312 22.9844 30.3125 22.5156 30.3125 21.9688C30.3125 21.4844 30.125 21.125 29.7344 20.5625C29.3125 20.1094 29.375 19.3438 29.8594 18.8594C30.3281 18.375 30.5156 18 30.5156 17.4375C30.5156 16.6406 29.9219 16.0469 29.125 16.0469H23.625C21.5 16.0469 19.9844 14.7969 19.9844 12.875C19.9844 10.3438 22.5469 6.54688 22.5469 4.42188C22.5469 3.78125 22.2031 3.40625 21.7031 3.40625C21.25 3.40625 20.9688 3.60938 20.5312 4.45312C18.2344 9.07812 15.0156 12.8125 12.7031 15.9062C10.6406 18.6719 9.9375 20.7031 9.9375 23.8906ZM3.09375 24.0469C3.09375 27.8438 5.28125 30.9062 7.92188 31.0781C8.40625 31.0781 8.92188 31.0781 9.39062 31.0781C7.6875 29.125 6.75 26.6719 6.75 23.9219C6.75 21.3125 7.21875 19.1406 8.25 17.0469C7.90625 17.0469 7.54688 17.0625 7.21875 17.0625C4.98438 17.2344 3.09375 20.25 3.09375 24.0469Z" fill="#1D1D1F"/>
</svg>
