<svg width="15" height="15" viewBox="0 0 15 15" fill="none" xmlns="http://www.w3.org/2000/svg">
<path d="M4.41406 10.4004C4.25 10.4004 4.111 10.3434 3.99707 10.2295C3.88314 10.111 3.82617 9.97201 3.82617 9.8125C3.82617 9.65299 3.88314 9.51628 3.99707 9.40234C4.111 9.28385 4.25 9.22461 4.41406 9.22461C4.57357 9.22461 4.71029 9.28385 4.82422 9.40234C4.94271 9.51628 5.00195 9.65299 5.00195 9.8125C5.00195 9.97201 4.94271 10.111 4.82422 10.2295C4.71029 10.3434 4.57357 10.4004 4.41406 10.4004ZM3.25879 7.65234C3.09928 7.65234 2.96029 7.59538 2.8418 7.48145C2.72786 7.36296 2.6709 7.22396 2.6709 7.06445C2.6709 6.90495 2.72786 6.76823 2.8418 6.6543C2.96029 6.53581 3.09928 6.47656 3.25879 6.47656C3.42285 6.47656 3.56185 6.53581 3.67578 6.6543C3.78971 6.76823 3.84668 6.90495 3.84668 7.06445C3.84668 7.22396 3.78971 7.36296 3.67578 7.48145C3.56185 7.59538 3.42285 7.65234 3.25879 7.65234ZM4.41406 4.9043C4.25 4.9043 4.111 4.84733 3.99707 4.7334C3.88314 4.61491 3.82617 4.47591 3.82617 4.31641C3.82617 4.15234 3.88314 4.01335 3.99707 3.89941C4.111 3.78548 4.25 3.72852 4.41406 3.72852C4.57357 3.72852 4.71029 3.78548 4.82422 3.89941C4.94271 4.01335 5.00195 4.15234 5.00195 4.31641C5.00195 4.47591 4.94271 4.61491 4.82422 4.7334C4.71029 4.84733 4.57357 4.9043 4.41406 4.9043ZM7.18945 3.72852C7.02995 3.72852 6.89095 3.67155 6.77246 3.55762C6.65853 3.44368 6.60156 3.30469 6.60156 3.14062C6.60156 2.98112 6.65853 2.8444 6.77246 2.73047C6.89095 2.61198 7.02995 2.55273 7.18945 2.55273C7.34896 2.55273 7.48568 2.61198 7.59961 2.73047C7.7181 2.8444 7.77734 2.98112 7.77734 3.14062C7.77734 3.30469 7.7181 3.44368 7.59961 3.55762C7.48568 3.67155 7.34896 3.72852 7.18945 3.72852ZM11.1064 7.65234C10.9424 7.65234 10.8034 7.59538 10.6895 7.48145C10.5755 7.36296 10.5186 7.22396 10.5186 7.06445C10.5186 6.90495 10.5755 6.76823 10.6895 6.6543C10.8034 6.53581 10.9424 6.47656 11.1064 6.47656C11.266 6.47656 11.4027 6.53581 11.5166 6.6543C11.6351 6.76823 11.6943 6.90495 11.6943 7.06445C11.6943 7.22396 11.6351 7.36296 11.5166 7.48145C11.4027 7.59538 11.266 7.65234 11.1064 7.65234ZM9.95117 10.4004C9.79167 10.4004 9.65267 10.3434 9.53418 10.2295C9.42025 10.111 9.36328 9.97201 9.36328 9.8125C9.36328 9.65299 9.42025 9.51628 9.53418 9.40234C9.65267 9.28385 9.79167 9.22461 9.95117 9.22461C10.1152 9.22461 10.2542 9.28385 10.3682 9.40234C10.4821 9.51628 10.5391 9.65299 10.5391 9.8125C10.5391 9.97201 10.4821 10.111 10.3682 10.2295C10.2542 10.3434 10.1152 10.4004 9.95117 10.4004ZM6.08887 8.11719C5.86556 7.89388 5.75391 7.63867 5.75391 7.35156C5.75391 7.0599 5.86556 6.80013 6.08887 6.57227C6.12988 6.53125 6.18685 6.4834 6.25977 6.42871C6.33724 6.36947 6.40332 6.32161 6.45801 6.28516L9.77344 3.98145C9.85547 3.92676 9.93294 3.90397 10.0059 3.91309C10.0833 3.9222 10.1494 3.95182 10.2041 4.00195C10.2497 4.05208 10.277 4.11589 10.2861 4.19336C10.2998 4.26628 10.277 4.34375 10.2178 4.42578L7.9209 7.74121C7.87988 7.7959 7.82975 7.86198 7.77051 7.93945C7.71582 8.01693 7.66797 8.07617 7.62695 8.11719C7.40365 8.34049 7.14616 8.45215 6.85449 8.45215C6.56738 8.45215 6.31217 8.34049 6.08887 8.11719ZM7.19629 14.0371C6.2347 14.0371 5.33236 13.8548 4.48926 13.4902C3.64616 13.1302 2.9056 12.6312 2.26758 11.9932C1.62956 11.3551 1.12826 10.6146 0.763672 9.77148C0.403646 8.92839 0.223633 8.02604 0.223633 7.06445C0.223633 6.10286 0.403646 5.20052 0.763672 4.35742C1.12826 3.51432 1.62956 2.77376 2.26758 2.13574C2.9056 1.49316 3.64616 0.991862 4.48926 0.631836C5.33236 0.27181 6.2347 0.0917969 7.19629 0.0917969C8.15788 0.0917969 9.06022 0.27181 9.90332 0.631836C10.7464 0.991862 11.487 1.49316 12.125 2.13574C12.763 2.77376 13.262 3.51432 13.6221 4.35742C13.9867 5.20052 14.1689 6.10286 14.1689 7.06445C14.1689 8.02604 13.9867 8.92839 13.6221 9.77148C13.262 10.6146 12.763 11.3551 12.125 11.9932C11.487 12.6312 10.7464 13.1302 9.90332 13.4902C9.06022 13.8548 8.15788 14.0371 7.19629 14.0371ZM7.19629 12.875C7.99837 12.875 8.75033 12.7246 9.45215 12.4238C10.154 12.123 10.7715 11.7061 11.3047 11.1729C11.8379 10.6396 12.2549 10.0221 12.5557 9.32031C12.8564 8.61849 13.0068 7.86654 13.0068 7.06445C13.0068 6.26237 12.8564 5.51042 12.5557 4.80859C12.2549 4.10221 11.8379 3.4847 11.3047 2.95605C10.7715 2.42285 10.154 2.00586 9.45215 1.70508C8.75033 1.4043 7.99837 1.25391 7.19629 1.25391C6.39421 1.25391 5.64225 1.4043 4.94043 1.70508C4.23861 2.00586 3.62109 2.42285 3.08789 2.95605C2.55469 3.4847 2.1377 4.10221 1.83691 4.80859C1.53613 5.51042 1.38574 6.26237 1.38574 7.06445C1.38574 7.86654 1.53613 8.61849 1.83691 9.32031C2.1377 10.0221 2.55469 10.6396 3.08789 11.1729C3.62109 11.7061 4.23861 12.123 4.94043 12.4238C5.64225 12.7246 6.39421 12.875 7.19629 12.875Z" fill="white"/>
</svg>
