<svg width="15" height="15" viewBox="0 0 15 15" fill="none" xmlns="http://www.w3.org/2000/svg">
<path d="M14.1641 6.32031C13.9609 6.32031 13.7917 6.2526 13.6562 6.11719C13.5208 5.97656 13.4531 5.80208 13.4531 5.59375V4.9375L13.6172 2.21094L11.5547 4.375L9.15625 6.79688C9.02604 6.93229 8.85938 7 8.65625 7C8.4375 7 8.2526 6.9349 8.10156 6.80469C7.95573 6.66927 7.88281 6.49219 7.88281 6.27344C7.88281 6.16927 7.90104 6.07031 7.9375 5.97656C7.97396 5.88281 8.02865 5.80208 8.10156 5.73438L10.5078 3.32812L12.6797 1.27344L9.94531 1.42969H9.28906C9.08073 1.42969 8.90625 1.36458 8.76562 1.23438C8.625 1.09896 8.55469 0.927083 8.55469 0.71875C8.55469 0.510417 8.625 0.338542 8.76562 0.203125C8.90625 0.0677083 9.08073 0 9.28906 0H13.625C14.026 0 14.3359 0.111979 14.5547 0.335938C14.7786 0.554688 14.8906 0.861979 14.8906 1.25781V5.59375C14.8906 5.79688 14.8203 5.96875 14.6797 6.10938C14.5443 6.25 14.3724 6.32031 14.1641 6.32031ZM5.59375 14.9062H1.25781C0.861979 14.9062 0.552083 14.7943 0.328125 14.5703C0.109375 14.3516 0 14.0443 0 13.6484V9.3125C0 9.10938 0.0677083 8.9375 0.203125 8.79688C0.338542 8.65625 0.510417 8.58594 0.71875 8.58594C0.927083 8.58594 1.09635 8.65625 1.22656 8.79688C1.36198 8.93229 1.42969 9.10417 1.42969 9.3125V9.96875L1.27344 12.6953L3.32812 10.5312L5.73438 8.10938C5.86458 7.97396 6.02865 7.90625 6.22656 7.90625C6.45052 7.90625 6.63542 7.97396 6.78125 8.10938C6.92708 8.23958 7 8.41406 7 8.63281C7 8.73698 6.98177 8.83594 6.94531 8.92969C6.90885 9.02344 6.85677 9.10417 6.78906 9.17188L4.375 11.5781L2.21094 13.6328L4.94531 13.4766H5.59375C5.80208 13.4766 5.97656 13.5417 6.11719 13.6719C6.25781 13.8073 6.32812 13.9792 6.32812 14.1875C6.32812 14.3958 6.25781 14.5677 6.11719 14.7031C5.98177 14.8385 5.80729 14.9062 5.59375 14.9062Z" fill="black"/>
</svg>
