<svg width="33" height="33" viewBox="0 0 33 33" fill="none" xmlns="http://www.w3.org/2000/svg">
<path d="M16.2969 32.5938C7.29688 32.5938 0 25.2969 0 16.2969C0 7.29688 7.29688 0 16.2969 0C25.2969 0 32.5938 7.29688 32.5938 16.2969C32.5938 25.2969 25.2969 32.5938 16.2969 32.5938ZM16.2969 29.0156C23.3281 29.0156 29.0156 23.3281 29.0156 16.2969C29.0156 9.26562 23.3281 3.57812 16.2969 3.57812C9.26562 3.57812 3.57812 9.26562 3.57812 16.2969C3.57812 23.3281 9.26562 29.0156 16.2969 29.0156ZM14.625 23.7344C14.0156 23.7344 13.5312 23.4531 13.0938 22.9062L9.48438 18.5469C9.20312 18.1875 9.04688 17.8281 9.04688 17.4375C9.04688 16.5938 9.71875 15.9375 10.5469 15.9375C11.0312 15.9375 11.4219 16.125 11.7969 16.6094L14.5781 20.0938L20.5156 10.5625C20.8594 10 21.3125 9.71875 21.8281 9.71875C22.625 9.71875 23.3594 10.2812 23.3594 11.125C23.3594 11.4844 23.1875 11.875 22.9688 12.2188L16.0938 22.8906C15.75 23.4219 15.2188 23.7344 14.625 23.7344Z" fill="#1D1D1F"/>
</svg>
