<svg width="34" height="35" viewBox="0 0 34 35" fill="none" xmlns="http://www.w3.org/2000/svg">
<path d="M13.8125 14.7812C10 14.7812 6.92188 11.4531 6.90625 7.32812C6.90625 3.28125 10.0156 0 13.8125 0C17.625 0 20.7188 3.25 20.7188 7.29688C20.7188 11.4375 17.625 14.7812 13.8125 14.7812ZM13.8125 11.8281C15.9062 11.8281 17.6406 9.89062 17.6406 7.29688C17.6406 4.79688 15.9062 2.95312 13.8125 2.95312C11.7344 2.95312 9.98438 4.8125 9.98438 7.3125C9.98438 9.90625 11.7344 11.8281 13.8125 11.8281ZM4.125 29.3594C1.35938 29.3594 0 28.4688 0 26.5469C0 22.1406 5.48438 16.5312 13.8125 16.5312C16.1719 16.5312 18.2969 17 20.125 17.7656C19.0625 18.3125 18.375 19.125 18.0469 20.1719C16.8125 19.75 15.3906 19.4844 13.8125 19.4844C7.10938 19.4844 3.3125 23.75 3.3125 26.0312C3.3125 26.2812 3.4375 26.4062 3.78125 26.4062H17.4219V27.5469C17.4219 28.2188 17.4844 28.8125 17.625 29.3594H4.125ZM19.7031 27.5781V21.9375C19.7031 20.8594 20.0625 20.2344 21.125 19.7812C21.9375 19.4375 24.7969 18.4844 25.5 18.2344C26.2188 17.9688 26.9688 17.9688 27.6562 18.1875C28.4219 18.4688 31.2812 19.4375 32.1094 19.7812C33.1719 20.2188 33.5312 20.8594 33.5312 21.9375V27.5781C33.5312 30.5781 31.7812 31.7969 27.3281 34.2188C26.8594 34.4844 26.2969 34.4375 25.9062 34.2188C21.4688 31.7812 19.7031 30.5781 19.7031 27.5781ZM25.75 30.6406C26.1562 30.6406 26.5469 30.4688 26.75 30.1875L31.2656 24.0156C31.4219 23.7969 31.5 23.5312 31.5 23.3281C31.5 22.6406 30.9375 22.1094 30.2812 22.1094C29.8594 22.1094 29.5 22.3281 29.2656 22.6406L25.6719 27.625L23.9375 25.7031C23.7344 25.4688 23.4219 25.3281 23.0469 25.3281C22.4062 25.3281 21.8281 25.7969 21.8281 26.5469C21.8281 26.8438 21.9531 27.1719 22.1875 27.4219L24.7812 30.25C25.0312 30.5156 25.4219 30.6406 25.75 30.6406Z" fill="#1D1D1F"/>
</svg>
