<svg width="17" height="16" viewBox="0 0 17 16" fill="none" xmlns="http://www.w3.org/2000/svg">
<path d="M2.28125 15.1094C1.81771 15.1094 1.41406 15.0052 1.07031 14.7969C0.731771 14.5938 0.46875 14.3177 0.28125 13.9688C0.09375 13.625 0 13.2448 0 12.8281C0 12.4271 0.104167 12.0443 0.3125 11.6797L6.35156 1.14844C6.5651 0.768229 6.84635 0.481771 7.19531 0.289062C7.54948 0.0963542 7.92188 0 8.3125 0C8.69792 0 9.0651 0.0963542 9.41406 0.289062C9.76302 0.481771 10.0469 0.768229 10.2656 1.14844L16.3047 11.6797C16.4089 11.862 16.487 12.0521 16.5391 12.25C16.5911 12.4427 16.6172 12.6354 16.6172 12.8281C16.6172 13.2448 16.5234 13.625 16.3359 13.9688C16.1484 14.3177 15.8828 14.5938 15.5391 14.7969C15.2005 15.0052 14.7995 15.1094 14.3359 15.1094H2.28125ZM8.32031 9.64844C8.82031 9.64844 9.08073 9.38802 9.10156 8.86719L9.22656 5.17188C9.23698 4.91667 9.15365 4.70573 8.97656 4.53906C8.80469 4.36719 8.58333 4.28125 8.3125 4.28125C8.03646 4.28125 7.8125 4.36458 7.64062 4.53125C7.46875 4.69792 7.38802 4.91146 7.39844 5.17188L7.51562 8.86719C7.53646 9.38802 7.80469 9.64844 8.32031 9.64844ZM8.32031 12.3984C8.60156 12.3984 8.84115 12.3125 9.03906 12.1406C9.23698 11.9635 9.33594 11.737 9.33594 11.4609C9.33594 11.1901 9.23698 10.9661 9.03906 10.7891C8.84115 10.612 8.60156 10.5234 8.32031 10.5234C8.03385 10.5234 7.79167 10.612 7.59375 10.7891C7.39583 10.9661 7.29688 11.1901 7.29688 11.4609C7.29688 11.737 7.39583 11.9635 7.59375 12.1406C7.79688 12.3125 8.03906 12.3984 8.32031 12.3984Z" fill="#FF3B2F"/>
</svg>
