<svg width="79" height="26" viewBox="0 0 79 26" fill="none" xmlns="http://www.w3.org/2000/svg">
<path fill-rule="evenodd" clip-rule="evenodd" d="M15.5013 9.19832C16.9552 9.19832 18.1339 8.01966 18.1339 6.56571C18.1339 5.11176 16.9552 3.93311 15.5013 3.93311C14.0474 3.93311 12.8688 5.11176 12.8688 6.56571C12.8688 8.01966 14.0474 9.19832 15.5013 9.19832Z" fill="white"/>
<path fill-rule="evenodd" clip-rule="evenodd" d="M15.5012 15.5145C16.9551 15.5145 18.1338 14.336 18.1338 12.8823C18.1338 11.4285 16.9551 10.25 15.5012 10.25C14.0473 10.25 12.8686 11.4285 12.8686 12.8823C12.8686 14.336 14.0473 15.5145 15.5012 15.5145Z" fill="white"/>
<path fill-rule="evenodd" clip-rule="evenodd" d="M15.5012 22.067C16.9551 22.067 18.1338 20.8883 18.1338 19.4344C18.1338 17.9804 16.9551 16.8018 15.5012 16.8018C14.0473 16.8018 12.8686 17.9804 12.8686 19.4344C12.8686 20.8883 14.0473 22.067 15.5012 22.067Z" fill="white"/>
<path fill-rule="evenodd" clip-rule="evenodd" d="M8.94977 15.5145C10.4035 15.5145 11.582 14.336 11.582 12.8823C11.582 11.4285 10.4035 10.25 8.94977 10.25C7.49605 10.25 6.31757 11.4285 6.31757 12.8823C6.31757 14.336 7.49605 15.5145 8.94977 15.5145Z" fill="white"/>
<path fill-rule="evenodd" clip-rule="evenodd" d="M8.94933 22.0665C10.403 22.0665 11.5815 20.8878 11.5815 19.4339C11.5815 17.9799 10.403 16.8013 8.94933 16.8013C7.4956 16.8013 6.31713 17.9799 6.31713 19.4339C6.31713 20.8878 7.4956 22.0665 8.94933 22.0665Z" fill="white"/>
<path fill-rule="evenodd" clip-rule="evenodd" d="M2.63255 22.067C4.08647 22.067 5.26511 20.8883 5.26511 19.4344C5.26511 17.9804 4.08647 16.8018 2.63255 16.8018C1.17863 16.8018 0 17.9804 0 19.4344C0 20.8883 1.17863 22.067 2.63255 22.067Z" fill="white"/>
<path d="M24.4069 8.27307V5.7973H36.0714V8.27307H31.7232V20H28.7551V8.27307H24.4069ZM38.9003 20H35.6825L40.5854 5.7973H44.4551L49.3512 20H46.1334L42.5758 9.04284H42.4648L38.9003 20ZM38.6991 14.4174H46.2998V16.7614H38.6991V14.4174ZM56.2906 20H51.2559V5.7973H56.3323C57.7608 5.7973 58.9906 6.08164 60.0216 6.6503C61.0526 7.21434 61.8455 8.02572 62.4003 9.08445C62.9597 10.1432 63.2394 11.41 63.2394 12.8848C63.2394 14.3642 62.9597 15.6356 62.4003 16.699C61.8455 17.7623 61.048 18.5783 60.0078 19.147C58.9721 19.7157 57.7331 20 56.2906 20ZM54.2587 17.4271H56.1658C57.0535 17.4271 57.8001 17.27 58.4058 16.9556C59.0161 16.6366 59.4738 16.1442 59.7789 15.4784C60.0887 14.8081 60.2435 13.9435 60.2435 12.8848C60.2435 11.8353 60.0887 10.9777 59.7789 10.3119C59.4738 9.64618 59.0184 9.15611 58.4127 8.84173C57.8071 8.52735 57.0604 8.37016 56.1728 8.37016H54.2587V17.4271ZM67.3061 20H64.0883L68.9913 5.7973H72.861L77.757 20H74.5392L70.9816 9.04284H70.8707L67.3061 20ZM67.105 14.4174H74.7057V16.7614H67.105V14.4174Z" fill="white"/>
</svg>
